# xmcd
#
# Track frame offsets: 
#        150
#        12553
#        27689
#        39009
#        50089
#        68860
#        82269
#        95442
#        116084
#        129371
#
# Disc length: 1873 seconds
#
# Revision: 0
# Processed by: cddbd v1.5.2PL0 Copyright (c) Steve Scherf et al.
# Submitted via: ExactAudioCopyFreeDBPlugin 1.0
#
DISCID=89074f0a
DTITLE=Circa Blue - Circa Blue
DYEAR=2011
DGENRE=Bluegrass
TTITLE0=Thunder Clouds of Love
TTITLE1=Angry
TTITLE2=I Still Miss Someone
TTITLE3=Chacer
TTITLE4=Annabelle
TTITLE5=Quiet Man
TTITLE6=Last Train From Poor Valley
TTITLE7=Circa Minor
TTITLE8=Brother John
TTITLE9=Previews
EXTD=
EXTT0=
EXTT1=
EXTT2=
EXTT3=
EXTT4=
EXTT5=
EXTT6=
EXTT7=
EXTT8=
EXTT9=
PLAYORDER=
